<svg xmlns="http://www.w3.org/2000/svg" viewBox="0 0 1078.46 162.14"><defs><style>.cls-1{fill:#88580b;}.cls-2{fill:#d09c26;}</style></defs><title>logo</title><g id="Layer_2" data-name="Layer 2"><g id="Layer_1-2" data-name="Layer 1"><path class="cls-1" d="M104.45,78.58q-5.74,10.61-18,17.1t-30.85,6.49H30.31v58H0V9.09H55.63q17.53,0,29.87,6.06T104,31.82a46.91,46.91,0,0,1,6.17,24A47.07,47.07,0,0,1,104.45,78.58ZM73,72Q79,66.24,79,55.85q0-22.08-24.68-22.08h-24V77.71h24Q66.89,77.71,73,72Z"/><path class="cls-1" d="M161.92,0V160.19H131.61V0Z"/><path class="cls-1" d="M191.25,67.54A53.15,53.15,0,0,1,211,45.89a52.45,52.45,0,0,1,27.82-7.58q13.42,0,23.49,5.41a47.7,47.7,0,0,1,16.13,13.64V40.26H308.9V160.19H278.38V142.66a45.11,45.11,0,0,1-16.13,14,49.36,49.36,0,0,1-23.7,5.52,51,51,0,0,1-27.6-7.79,54.5,54.5,0,0,1-19.7-22Q184,118.2,184,99.79,184,81.61,191.25,67.54Zm82.8,13.75a30.56,30.56,0,0,0-11.69-12.12,31.24,31.24,0,0,0-15.8-4.22,30.43,30.43,0,0,0-27.17,16.13Q215,89,215,99.79a38.86,38.86,0,0,0,4.44,18.94,31.91,31.91,0,0,0,11.69,12.45,29.66,29.66,0,0,0,15.48,4.33,31.24,31.24,0,0,0,15.8-4.22,30.54,30.54,0,0,0,11.69-12.12q4.33-7.9,4.33-18.94T274.05,81.29Z"/><path class="cls-1" d="M439.65,52.06q13.2,13.53,13.21,37.77v70.35H422.55V93.95q0-14.29-7.14-22t-19.48-7.68q-12.56,0-19.81,7.68t-7.25,22v66.24H338.56V40.26h30.31V55.2A41.86,41.86,0,0,1,384.34,43,47.91,47.91,0,0,1,405,38.53Q426.45,38.53,439.65,52.06Z"/><path class="cls-2" d="M586.1,78.58q-5.74,10.61-18,17.1t-30.85,6.49H512v58H481.65V9.09h55.63q17.53,0,29.87,6.06t18.51,16.67a46.91,46.91,0,0,1,6.17,24A47.07,47.07,0,0,1,586.1,78.58ZM554.6,72q6.06-5.73,6.06-16.13,0-22.08-24.68-22.08H512V77.71h24Q548.54,77.71,554.6,72Z"/><path class="cls-2" d="M635.34,154.45a55.29,55.29,0,0,1-21.75-21.76q-7.91-14.07-7.9-32.47t8.12-32.47A56.41,56.41,0,0,1,636,46a67.95,67.95,0,0,1,62.78,0A56.43,56.43,0,0,1,721,67.76q8.12,14.07,8.12,32.47t-8.33,32.47a57.71,57.71,0,0,1-22.51,21.76,65.46,65.46,0,0,1-31.71,7.68A63.15,63.15,0,0,1,635.34,154.45ZM682,131.72a29.11,29.11,0,0,0,11.58-12q4.33-8,4.33-19.48,0-17.1-9-26.3a29.54,29.54,0,0,0-22-9.2,28.84,28.84,0,0,0-21.76,9.2q-8.77,9.2-8.77,26.3t8.55,26.3a28.14,28.14,0,0,0,21.54,9.2A31.51,31.51,0,0,0,682,131.72Z"/><path class="cls-2" d="M822.37,160.19l-40.7-51.09v51.09H751.37V0h30.31V91.14l40.26-50.87h39.4l-52.82,60.18,53.25,59.75Z"/><path class="cls-2" d="M988.41,109.32H900.73q1.08,13,9.09,20.35a28,28,0,0,0,19.7,7.36q16.89,0,24-14.5h32.69A54.62,54.62,0,0,1,966.33,151q-14.72,11.15-36.15,11.15a62.54,62.54,0,0,1-31.06-7.68,54,54,0,0,1-21.43-21.76Q870,118.63,870,100.23q0-18.62,7.58-32.69a52.89,52.89,0,0,1,21.21-21.65q13.64-7.57,31.39-7.58a63.09,63.09,0,0,1,30.63,7.36,51.83,51.83,0,0,1,21,20.89q7.47,13.53,7.47,31.06A71.76,71.76,0,0,1,988.41,109.32ZM957.88,89q-.22-11.69-8.44-18.73t-20.13-7q-11.26,0-18.94,6.82T901,89Z"/><path class="cls-2" d="M1056.92,43.94a42.46,42.46,0,0,1,21.54-5.41V70.35h-8q-14.29,0-21.54,6.71t-7.25,23.38v59.75h-30.31V40.26h30.31V58.88A42.63,42.63,0,0,1,1056.92,43.94Z"/></g></g></svg>